HIERARCHY
ROOT Hips
{
	OFFSET 0.00000 0.00000 0.00000
	CHANNELS 6 Xposition Yposition Zposition Zrotation Yrotation Xrotation 
	JOINT LHipJoint
	{
		OFFSET 0 0 0
		CHANNELS 3 Zrotation Yrotation Xrotation
		JOINT LeftHip
		{
			OFFSET 1.85742 -1.74412 1.01653
			CHANNELS 3 Zrotation Yrotation Xrotation
			JOINT LeftKnee
			{
				OFFSET 2.54803 -7.00067 0.00000
				CHANNELS 3 Zrotation Yrotation Xrotation
				JOINT LeftAnkle
				{
					OFFSET 2.51202 -6.90173 0.00000
					CHANNELS 3 Zrotation Yrotation Xrotation
					JOINT LeftToe
					{
						OFFSET 0.17547 -0.48209 1.64281
						CHANNELS 3 Zrotation Yrotation Xrotation
						End Site
						{
							OFFSET 0.00000 -0.00000 0.86587
						}
					}
				}
			}
		}
	}
	JOINT RHipJoint
	{
		OFFSET 0 0 0
		CHANNELS 3 Zrotation Yrotation Xrotation
		JOINT RightHip
		{
			OFFSET -1.95533 -1.74413 1.01654
			CHANNELS 3 Zrotation Yrotation Xrotation
			JOINT RightKnee
			{
				OFFSET -2.49465 -6.85400 0.00000
				CHANNELS 3 Zrotation Yrotation Xrotation
				JOINT RightAnkle
				{
					OFFSET -2.54783 -7.00010 0.00000
					CHANNELS 3 Zrotation Yrotation Xrotation
					JOINT RightToe
					{
						OFFSET -0.18513 -0.50864 1.69288
						CHANNELS 3 Zrotation Yrotation Xrotation
						End Site
						{
							OFFSET -0.00000 -0.00000 0.89242
						}
					}
				}
			}
		}
	}
	JOINT lowerback
	{
		OFFSET 0 0 0
		CHANNELS 3 Zrotation Yrotation Xrotation
		JOINT Chest
		{
			OFFSET 0.02173 2.16290 -0.15998
			CHANNELS 3 Zrotation Yrotation Xrotation
			JOINT Chest2
			{
				OFFSET 0.00940 2.17323 -0.00467
				CHANNELS 3 Zrotation Yrotation Xrotation
				JOINT lowerneck
				{
					OFFSET 0 0 0
					CHANNELS 3 Zrotation Yrotation Xrotation
					JOINT Neck
					{
						OFFSET 0.01475 1.85823 0.31113
						CHANNELS 3 Zrotation Yrotation Xrotation
						JOINT Head
						{
							OFFSET 0.01902 1.88783 -0.37187
							CHANNELS 3 Zrotation Yrotation Xrotation
							End Site
							{
								OFFSET 0.00489 1.93211 -0.16169
							}
						}
					}
				}
				JOINT LeftCollar
				{
					OFFSET 0 0 0
					CHANNELS 3 Zrotation Yrotation Xrotation
					JOINT LeftShoulder
					{
						OFFSET 3.34199 1.32384 -0.07862
CHANNELS 3 Zrotation Xrotation Yrotation
						JOINT LeftElbow
						{
OFFSET 0 -5.279500 0.000000
CHANNELS 3 Zrotation Xrotation Yrotation
							JOINT LeftWrist
							{
OFFSET 0 -3.535040 0.000000
CHANNELS 3 Zrotation Xrotation Yrotation
								JOINT lhand
								{
									OFFSET 0 0 0
CHANNELS 3 Zrotation Xrotation Yrotation
									JOINT LFingers
									{
OFFSET 0 -0.667950 0.000000
CHANNELS 3 Zrotation Xrotation Yrotation
										End Site
										{
OFFSET 0 -0.538520 0.000000
										}
									}
								}
								JOINT LThumb
								{
OFFSET 0 0.000000 0.000000
CHANNELS 3 Zrotation Xrotation Yrotation
									End Site
									{
OFFSET 0 -0.546740 0.546740
									}
								}
							}
						}
					}
				}
				JOINT RightCollar
				{
					OFFSET 0 0 0
					CHANNELS 3 Zrotation Yrotation Xrotation
					JOINT RightShoulder
					{
						OFFSET -3.16149 1.45719 -0.50507
CHANNELS 3 Zrotation Xrotation Yrotation
						JOINT RightElbow
						{
OFFSET 0 -5.250350 0.000000
CHANNELS 3 Zrotation Xrotation Yrotation
							JOINT RightWrist
							{
OFFSET 0 -3.588840 0.000000
CHANNELS 3 Zrotation Xrotation Yrotation
								JOINT rhand
								{
									OFFSET 0 0 0
CHANNELS 3 Zrotation Xrotation Yrotation
									JOINT RFingers
									{
OFFSET 0 -0.779240 0.000000
CHANNELS 3 Zrotation Xrotation Yrotation
										End Site
										{
OFFSET 0 -0.628240 0.000000
										}
									}
								}
								JOINT RThumb
								{
OFFSET 0 0.000000 0.000000
CHANNELS 3 Zrotation Xrotation Yrotation
									End Site
									{
OFFSET 0 -0.637830 0.637830
									}
								}
							}
						}
					}
				}
			}
		}
	}
}
MOTION
Frames: 8
Frame Time: .0083333
-2.1548 17.6967 -1.4200 -4.0955 82.1386 2.6059 0.0000 0.0000 0.0000 -15.6228 -25.1449 -6.8061 1.3735 7.4167 20.9559 -0.1162 12.9818 -16.9367 0.8167 -5.7665 -16.1084 0.0000 0.0000 0.0000 25.6746 22.2204 2.5759 -0.4595 -4.3481 12.0581 3.5900 -34.3531 -29.7438 -0.7177 -5.4138 15.0926 -0.1767 0.7746 1.2160 1.3369 1.0774 -1.9613 1.4326 0.5630 -2.7230 1.9512 0.7929 -21.1745 0.5573 1.6843 41.0324 0.4701 1.5417 19.3996 0.0000 0.0000 0.0000 6.5043 2.1087 -3.7324 34.6817 -44.5835 14.5895 33.9592 -18.7354 -52.5663 0.0 0.0 0.0 -7.1250 0.0 0.0 -62.9203 84.8534 58.2306 0.0000 0.0000 0.0000 -8.6857 9.7295 20.3912 -17.4003 -27.3825 -4.2698 -21.6981 -4.7169 -13.9594 0.0 0.0 0.0 7.1250 0.0 -0.0 3.9135 15.0263 2.7717
-2.1686 17.6939 -1.4011 -4.0372 82.2593 2.8514 0.0000 0.0000 0.0000 -15.4843 -25.6677 -6.9897 1.3901 7.4594 21.0838 -0.1623 13.3751 -16.9127 0.8238 -5.7912 -16.1797 0.0000 0.0000 0.0000 25.6404 22.2239 2.2483 -0.4612 -4.3564 12.0817 3.7948 -34.7512 -29.2309 -0.5915 -4.9240 13.6919 -0.0684 0.7670 1.1227 1.2789 1.0719 -2.1318 1.3127 0.5591 -2.8428 1.9992 0.9084 -20.8223 0.7111 2.0065 42.3361 0.6535 1.7543 20.1492 0.0000 0.0000 0.0000 6.5966 2.2326 -5.1485 33.0042 -43.3333 13.4249 32.8331 -15.6539 -57.5902 0.0 0.0 0.0 -7.1250 0.0 0.0 -101.2274 -83.2828 -107.9351 0.0000 0.0000 0.0000 -8.6063 9.7637 20.3723 -17.2583 -27.197 -4.2047 -18.3111 -4.2914 -15.7213 0.0 0.0 0.0 7.1250 0.0 -0.0 6.2823 13.5367 4.666
-2.1825 17.6915 -1.3770 -4.0191 82.3906 2.9901 0.0000 0.0000 0.0000 -15.3486 -26.0364 -7.0958 1.3963 7.4755 21.1321 -0.1979 13.6555 -16.8651 0.8375 -5.8378 -16.3146 0.0000 0.0000 0.0000 25.6622 22.2100 1.9906 -0.4691 -4.3930 12.1851 3.8612 -34.8923 -29.1026 -0.5354 -4.6886 13.0225 -0.0566 0.7790 0.9118 1.2741 1.0871 -2.1253 1.3036 0.5663 -2.7172 2.0722 1.0066 -20.6008 0.7248 2.3421 43.4615 0.7690 1.9453 20.8640 0.0000 0.0000 0.0000 6.6617 2.2278 -6.823 31.5370 -42.175 12.4289 30.7692 -14.6915 -61.7267 0.0 0.0 0.0 -7.1250 0.0 0.0 -115.9349 -80.5083 -124.8712 0.0000 0.0000 0.0000 -8.5916 9.5581 20.2254 -17.1384 -27.0398 -4.1501 -18.1584 -4.2141 -15.752 0.0 0.0 0.0 7.1250 0.0 -0.0 6.3860 13.5208 4.7461
-2.1965 17.6908 -1.3506 -3.6496 82.5032 3.3952 0.0000 0.0000 0.0000 -15.3084 -26.4437 -7.0886 1.4087 7.5073 21.2272 -0.2171 13.9152 -17.0232 0.7993 -5.7062 -15.9342 0.0000 0.0000 0.0000 25.6738 22.1503 1.9085 -0.4695 -4.3948 12.1901 3.7719 -34.7314 -29.3672 -0.5876 -4.9080 13.6463 -0.0752 0.8119 0.8770 1.2355 1.1293 -2.1308 1.2734 0.5873 -2.7039 2.1817 1.1009 -20.3100 0.7280 2.6577 44.4085 0.8655 2.1284 21.4684 0.0000 0.0000 0.0000 6.7582 2.3768 -8.664 30.3002 -41.1494 11.6067 27.8045 -15.5211 -65.0708 0.0 0.0 0.0 -7.1250 0.0 0.0 -120.4684 -77.989 -131.5306 0.0000 0.0000 0.0000 -8.5141 9.4447 19.9953 -17.0886 -26.9744 -4.1274 -18.1354 -4.1597 -15.7328 0.0 0.0 0.0 7.1250 0.0 -0.0 6.4008 13.5431 4.7543
-2.2132 17.6902 -1.3261 -4.0808 82.6218 2.9516 0.0000 0.0000 0.0000 -15.1646 -26.7503 -7.0624 1.4186 7.5324 21.3026 -0.2059 13.9960 -17.3153 0.6818 -5.2795 -14.7075 0.0000 0.0000 0.0000 25.8102 22.0663 1.8693 -0.4703 -4.3984 12.2003 3.6409 -34.4931 -29.7430 -0.6858 -5.2946 14.7506 0.0245 0.8592 0.8998 1.2337 1.1937 -2.0752 1.2137 0.6168 -2.6588 2.1721 1.1750 -19.9448 0.8342 2.9038 45.0230 1.0080 2.2680 21.8158 0.0000 -0.0000 0.0000 6.7365 2.5023 -10.7595 29.1845 -40.1841 10.8796 23.9877 -17.9399 -67.6207 0.0 0.0 0.0 -7.1250 0.0 0.0 -121.2087 -75.9807 -134.209 0.0000 -0.0000 0.0000 -8.4544 9.326 19.7458 -17.1492 -27.054 -4.155 -18.0736 -4.1496 -15.7008 0.0 0.0 0.0 7.1250 0.0 -0.0 6.4412 13.5828 4.7793
-2.2352 17.6872 -1.3032 -5.3409 82.7723 1.7005 0.0000 0.0000 0.0000 -14.8926 -27.1478 -7.0307 1.4235 7.5448 21.3396 -0.2581 14.2927 -17.0812 0.7960 -5.6949 -15.9018 0.0000 0.0000 0.0000 26.0432 21.9801 1.7412 -0.4738 -4.4145 12.2458 3.6758 -34.5626 -29.6626 -0.6717 -5.2410 14.5971 0.2555 0.9165 0.9156 1.2528 1.2740 -1.9750 1.1018 0.6518 -2.5617 2.0520 1.1876 -19.6408 1.0478 3.0009 45.4154 1.1842 2.3370 22.0114 -0.0000 0.0000 0.0000 6.6242 2.6426 -13.6754 27.2164 -38.3848 9.6332 12.8782 -28.7579 -71.0714 0.0 0.0 0.0 -7.1250 0.0 0.0 -117.9865 -72.8453 -134.7313 -0.0000 0.0000 0.0000 -8.3768 9.1749 19.3974 -17.2865 -27.2339 -4.2176 -18.1576 -4.1766 -15.7382 0.0 0.0 0.0 7.1250 0.0 -0.0 6.3860 13.5352 4.7442
-2.2595 17.6841 -1.2795 -5.5036 82.9453 1.5744 0.0000 0.0000 0.0000 -14.7584 -27.6056 -7.0237 1.4246 7.5477 21.3485 -0.2950 14.5499 -17.0014 0.8283 -5.8065 -16.2240 0.0000 0.0000 0.0000 26.0989 21.8806 1.5492 -0.4772 -4.4304 12.2907 3.7546 -34.6985 -29.4129 -0.6266 -5.0654 14.0952 0.3621 0.9484 0.9521 1.2197 1.3166 -1.8982 1.0069 0.6699 -2.5008 1.9872 1.2002 -19.7126 1.2121 3.0614 45.6102 1.3284 2.3837 22.5785 0.0000 0.0000 0.0000 6.6293 2.6281 -14.9065 27.6436 -38.786 9.8996 16.8263 -23.1366 -71.0974 0.0 0.0 0.0 -7.1250 0.0 0.0 -121.3876 -73.1959 -137.2643 0.0000 0.0000 0.0000 -8.2829 9.0952 19.1591 -17.4920 -27.5019 -4.3121 -18.4739 -4.3882 -15.8009 0.0 0.0 0.0 7.1250 0.0 -0.0 6.1758 13.4369 4.599
-2.2836 17.6821 -1.2501 -5.0035 83.1168 2.1011 0.0000 0.0000 0.0000 -14.6543 -27.7488 -7.1469 1.4212 7.5390 21.3223 -0.2970 14.5166 -16.9135 0.8179 -5.7706 -16.1204 0.0000 0.0000 0.0000 26.0824 21.7872 1.3552 -0.4825 -4.4544 12.3586 3.7240 -34.6330 -29.4704 -0.6592 -5.1930 14.4598 0.3259 0.9600 1.0123 1.1848 1.3288 -1.8210 0.9907 0.6756 -2.4553 1.9564 1.2520 -19.4565 1.2857 3.2056 45.8004 1.4167 2.4557 22.6434 -0.0000 0.0000 0.0000 6.6712 2.8349 -16.4206 28.2596 -39.3541 10.2879 21.0669 -17.2334 -71.0015 0.0 0.0 0.0 -7.1250 0.0 0.0 -125.0886 -73.5405 -140.0125 -0.0000 0.0000 0.0000 -8.2573 9.0474 19.1541 -17.7416 -27.825 -4.428 -18.7357 -4.7262 -15.6477 0.0 0.0 0.0 7.1250 0.0 -0.0 5.9942 13.5683 4.4455
